<?xml version="1.0" standalone="no"?>
<!DOCTYPE svg PUBLIC "-//W3C//DTD SVG 20010904//EN"
 "http://www.w3.org/TR/2001/REC-SVG-20010904/DTD/svg10.dtd">
<svg version="1.0" xmlns="http://www.w3.org/2000/svg"
 width="7120.000000pt" height="4747.000000pt" viewBox="0 0 7120.000000 4747.000000"
 preserveAspectRatio="xMidYMid meet">
<metadata>
Created by potrace 1.16, written by Peter Selinger 2001-2019
</metadata>
<g transform="translate(0.000000,4747.000000) scale(0.100000,-0.100000)"
fill="#000000" stroke="none">
<path d="M53359 44767 c-112 -64 -125 -73 -189 -133 -36 -34 -83 -69 -105 -78
-22 -10 -50 -27 -62 -38 -13 -12 -38 -31 -57 -42 -77 -48 -143 -96 -166 -121
-14 -15 -51 -45 -82 -66 -31 -21 -63 -47 -70 -57 -23 -31 -79 -72 -98 -72 -37
0 -150 -81 -176 -126 -28 -48 -82 -99 -123 -117 -14 -6 -84 -71 -156 -144 -80
-81 -146 -139 -170 -150 -22 -10 -58 -37 -80 -61 -21 -24 -56 -53 -78 -64 -22
-11 -63 -42 -91 -69 -28 -27 -66 -53 -83 -58 -18 -5 -50 -23 -70 -40 -21 -17
-42 -31 -48 -31 -6 0 -42 -31 -80 -70 -38 -38 -74 -70 -80 -70 -6 0 -26 -13
-45 -29 -19 -15 -49 -35 -66 -44 -18 -9 -54 -38 -81 -65 -27 -27 -62 -52 -78
-56 -16 -4 -42 -19 -59 -33 -17 -14 -49 -34 -71 -43 -61 -26 -153 -95 -271
-203 -58 -54 -125 -107 -148 -119 -22 -11 -50 -29 -61 -39 -11 -10 -36 -25
-55 -33 -19 -8 -58 -37 -87 -65 -29 -28 -65 -53 -80 -57 -15 -4 -46 -21 -68
-39 -22 -17 -51 -38 -65 -45 -14 -7 -42 -32 -62 -55 -21 -24 -54 -50 -75 -60
-21 -10 -70 -47 -109 -84 -77 -72 -155 -131 -172 -131 -6 0 -41 -27 -79 -60
-37 -33 -75 -60 -83 -60 -9 0 -42 -18 -73 -40 -30 -22 -59 -40 -64 -40 -5 0
-29 -21 -53 -46 -25 -26 -65 -56 -90 -67 -48 -21 -109 -68 -202 -154 -31 -29
-63 -53 -71 -53 -8 0 -37 -15 -63 -33 -27 -19 -64 -39 -81 -45 -18 -6 -48 -22
-66 -36 -19 -15 -38 -26 -44 -26 -6 0 -37 -18 -69 -40 -33 -22 -64 -40 -71
-40 -6 0 -35 -25 -64 -55 -29 -31 -64 -61 -78 -68 -25 -12 -26 -15 -31 -133
-7 -166 -27 -194 -136 -181 -25 2 -58 1 -72 -4 -60 -18 -142 -31 -236 -37
l-100 -7 -30 -59 c-42 -81 -111 -151 -161 -162 -37 -9 -42 -15 -90 -106 -62
-119 -135 -211 -184 -233 -34 -15 -90 -51 -176 -114 -22 -16 -51 -32 -65 -36
-14 -4 -37 -16 -52 -26 -14 -11 -44 -27 -66 -37 -24 -10 -56 -38 -81 -70 -33
-42 -51 -55 -87 -64 -41 -11 -48 -18 -72 -67 -32 -65 -110 -154 -150 -170 -22
-9 -52 -50 -123 -167 -52 -85 -108 -178 -126 -207 -18 -29 -38 -63 -45 -77
-14 -29 -71 -117 -91 -142 -8 -10 -36 -27 -62 -39 -27 -12 -60 -34 -74 -50
-15 -16 -42 -32 -61 -35 -19 -4 -60 -24 -90 -45 -31 -22 -60 -39 -66 -39 -6 0
-31 -13 -57 -30 -26 -16 -54 -30 -61 -30 -12 0 -92 -58 -176 -128 -19 -16 -48
-32 -65 -36 -16 -4 -47 -21 -69 -37 -22 -16 -47 -29 -56 -29 -37 0 -138 -44
-170 -75 -31 -29 -43 -33 -110 -40 -91 -8 -149 -32 -206 -85 -26 -24 -53 -40
-68 -40 -21 0 -37 -21 -108 -136 -99 -164 -143 -216 -201 -238 -31 -11 -48
-26 -59 -49 -28 -57 -90 -119 -143 -142 -45 -21 -55 -31 -100 -109 -27 -47
-69 -112 -91 -144 -38 -53 -55 -66 -117 -86 -9 -3 -41 -43 -71 -89 -63 -95
-94 -130 -136 -147 -20 -8 -41 -32 -64 -74 -42 -75 -78 -109 -131 -124 -36
-10 -45 -19 -79 -83 -55 -101 -89 -138 -138 -145 -43 -7 -60 -26 -123 -134
-16 -28 -54 -88 -82 -133 -29 -45 -67 -110 -84 -144 -33 -62 -83 -103 -126
-103 -11 0 -32 -13 -47 -29 -19 -20 -46 -34 -78 -40 -62 -14 -104 -35 -145
-73 -17 -17 -46 -33 -63 -37 -27 -5 -43 -23 -103 -116 -72 -108 -72 -110 -69
-171 2 -59 -1 -67 -50 -154 -29 -51 -63 -103 -75 -116 -39 -42 -94 -30 -284
62 -106 52 -117 60 -135 98 -22 46 -19 45 -279 161 -93 42 -204 92 -245 111
-41 18 -109 47 -151 63 -67 26 -79 28 -117 18 -48 -13 -71 -6 -189 49 -72 34
-108 40 -173 29 -24 -5 -52 0 -88 14 -29 12 -73 21 -99 21 -25 0 -78 12 -117
26 -64 23 -75 24 -109 13 -35 -11 -47 -10 -108 11 -62 21 -73 22 -109 10 -31
-10 -46 -11 -65 -2 -32 15 -92 16 -100 2 -3 -5 -21 -10 -39 -10 -18 0 -41 -7
-52 -15 -10 -8 -26 -15 -36 -15 -9 0 -35 -16 -58 -35 -26 -22 -52 -35 -71 -35
-23 0 -33 -8 -54 -45 -33 -56 -79 -95 -112 -95 -14 0 -33 -11 -46 -27 -57 -69
-96 -103 -119 -103 -14 0 -38 -14 -58 -35 -21 -22 -43 -35 -60 -35 -34 0 -128
35 -151 56 -24 22 -26 86 -3 105 28 23 33 54 34 196 l2 138 -34 -3 c-18 -2
-63 7 -101 20 -55 19 -71 20 -87 10 -31 -19 -62 -15 -147 20 -57 23 -95 32
-143 33 -50 1 -78 8 -120 30 -50 25 -59 27 -96 17 -49 -13 -67 -10 -162 30
-72 31 -73 31 -111 13 -30 -13 -43 -15 -60 -6 -11 7 -21 16 -21 22 0 6 -6 25
-14 42 -70 165 -78 193 -71 263 5 52 3 83 -10 124 -22 73 -45 130 -65 160 -28
42 -42 111 -32 155 13 59 5 99 -38 189 -21 45 -43 99 -50 121 -7 22 -20 58
-28 80 -11 27 -16 75 -16 146 -1 84 -5 111 -17 125 -27 31 -52 122 -46 167 4
26 23 65 56 113 28 40 51 77 51 82 0 5 7 15 15 22 10 9 15 31 15 74 0 72 24
225 39 254 6 11 11 45 11 74 0 78 28 133 147 287 14 19 49 44 79 57 42 19 60
34 83 71 34 56 223 233 278 262 21 11 101 58 178 105 254 154 299 180 382 217
45 20 94 46 110 57 15 11 55 25 88 31 115 22 158 40 249 105 15 11 73 32 129
47 80 22 124 28 202 29 55 0 116 5 135 10 85 25 967 -1 1035 -30 19 -8 112
-16 245 -21 118 -5 235 -13 260 -19 25 -5 80 -9 122 -10 72 0 83 -3 195 -57
113 -55 122 -58 223 -64 58 -4 116 -10 130 -14 27 -7 224 27 273 46 21 9 27
18 27 43 0 18 -4 36 -8 41 -4 6 -18 37 -30 70 -13 33 -38 92 -57 130 -19 39
-37 86 -41 105 -9 47 -30 87 -53 100 -25 13 -74 99 -96 170 -10 30 -32 72 -49
92 -53 63 -73 92 -81 118 -4 14 -23 38 -42 54 -34 29 -83 112 -83 142 0 34
-180 228 -248 266 -29 17 -59 43 -68 60 -8 16 -43 47 -77 69 -34 22 -73 57
-87 77 -18 25 -48 48 -98 73 -51 26 -81 49 -102 78 -37 50 -48 58 -190 121
-63 28 -146 66 -185 83 -61 27 -82 32 -160 33 -62 1 -102 6 -130 19 -29 13
-53 16 -91 11 -35 -4 -66 -1 -95 10 -35 12 -63 14 -134 8 -49 -5 -118 -7 -153
-5 -42 1 -81 -4 -120 -17 -34 -12 -96 -22 -157 -25 -99 -5 -174 -20 -290 -57
-144 -46 -267 -79 -370 -100 -61 -12 -109 -33 -167 -73 -19 -12 -61 -31 -94
-41 -141 -43 -160 -50 -187 -69 -30 -20 -107 -52 -169 -69 -20 -6 -54 -24 -75
-42 -21 -17 -65 -40 -98 -51 -60 -19 -154 -69 -230 -122 -22 -15 -60 -37 -85
-49 -25 -12 -54 -31 -64 -43 -11 -11 -36 -26 -56 -31 -27 -7 -66 -38 -136
-106 -55 -53 -112 -103 -129 -111 -16 -8 -52 -37 -80 -64 -27 -26 -68 -54 -89
-62 -22 -7 -43 -20 -48 -28 -17 -31 -106 -171 -162 -255 -33 -49 -84 -127
-114 -174 -31 -47 -101 -155 -157 -240 -56 -85 -106 -162 -110 -170 -5 -8 -8
-41 -7 -72 3 -62 -9 -92 -73 -182 -31 -43 -35 -55 -35 -115 0 -58 -5 -72 -36
-121 -19 -30 -43 -82 -54 -115 -10 -33 -26 -77 -35 -98 -13 -31 -18 -97 -24
-339 -6 -192 -5 -313 1 -336 5 -19 7 -58 4 -86 -5 -38 -1 -65 13 -104 14 -39
18 -67 14 -108 -6 -54 -2 -72 44 -229 24 -82 73 -216 99 -272 13 -29 30 -81
38 -115 22 -95 33 -118 82 -170 24 -26 44 -53 44 -60 0 -7 9 -30 20 -51 11
-21 27 -67 36 -104 8 -36 23 -84 34 -107 10 -22 26 -66 35 -96 10 -30 26 -74
37 -98 10 -23 23 -64 28 -91 5 -26 20 -73 34 -102 36 -78 86 -222 86 -246 0
-25 -73 -93 -100 -93 -21 0 -88 -15 -153 -33 -28 -8 -50 -7 -85 2 -45 11 -53
10 -122 -19 -59 -23 -89 -30 -140 -29 -36 0 -87 1 -115 1 -62 1 -113 -12 -189
-46 -66 -29 -82 -31 -137 -14 -29 8 -45 8 -62 0 -21 -10 -40 -14 -142 -28 -22
-4 -47 -13 -56 -21 -14 -11 -25 -12 -63 -2 -36 9 -53 9 -69 0 -23 -12 -96 -29
-162 -38 -22 -3 -49 -11 -60 -18 -16 -11 -30 -10 -74 1 -40 11 -57 11 -67 3
-14 -12 -61 -25 -134 -39 -25 -5 -67 -16 -95 -24 -135 -42 -166 -48 -245 -51
-47 -1 -98 -5 -115 -8 -16 -3 -50 -10 -75 -15 -25 -4 -52 -12 -60 -17 -8 -5
-32 -12 -55 -16 -89 -17 -123 -28 -188 -63 -37 -20 -77 -36 -89 -36 -12 0 -37
-14 -54 -31 -18 -17 -50 -35 -71 -40 -94 -20 -133 -37 -172 -72 -26 -23 -51
-37 -69 -37 -15 -1 -38 -7 -52 -15 -14 -8 -35 -14 -48 -15 -13 0 -38 -15 -57
-33 -23 -22 -60 -42 -107 -58 -49 -15 -86 -36 -113 -60 -25 -23 -54 -39 -77
-43 -21 -3 -54 -9 -73 -12 -20 -4 -54 -23 -79 -45 -24 -21 -55 -39 -68 -39
-34 -1 -109 -37 -143 -70 -28 -27 -136 -70 -177 -70 -10 0 -34 -18 -54 -40
-22 -24 -52 -44 -74 -50 -21 -6 -43 -17 -51 -26 -17 -21 -63 -44 -88 -44 -30
0 -108 -45 -157 -90 -25 -23 -54 -40 -67 -40 -14 0 -39 -16 -62 -40 -26 -26
-48 -40 -65 -40 -17 0 -39 -14 -65 -40 -30 -30 -47 -40 -72 -40 -35 0 -38 -3
-108 -115 -90 -145 -141 -224 -222 -347 l-84 -127 11 -41 c10 -36 8 -47 -15
-97 -21 -47 -24 -61 -16 -91 8 -25 6 -44 -4 -68 -10 -25 -11 -41 -3 -68 10
-31 8 -43 -12 -86 l-24 -50 22 -39 c18 -32 35 -79 102 -287 15 -47 12 -65 -20
-114 -21 -32 -30 -57 -30 -86 0 -23 -6 -60 -14 -82 -9 -24 -11 -43 -5 -49 16
-16 38 -117 37 -169 0 -27 4 -67 10 -89 6 -22 20 -80 31 -130 39 -180 60 -227
117 -259 30 -17 40 -28 42 -52 2 -20 16 -44 38 -65 19 -18 34 -43 34 -56 0
-19 13 -28 68 -53 72 -33 92 -51 92 -85 0 -12 16 -36 34 -54 24 -24 36 -45 38
-69 3 -32 7 -36 64 -56 92 -34 150 -71 162 -105 7 -21 27 -38 73 -62 54 -30
64 -39 73 -73 10 -37 17 -42 106 -85 93 -45 95 -47 100 -84 5 -39 5 -39 125
-94 66 -31 126 -60 133 -65 6 -6 12 -26 12 -45 0 -32 3 -35 68 -64 59 -27 71
-30 97 -19 17 6 37 14 46 17 9 2 63 -19 120 -47 163 -81 204 -95 249 -81 55
16 66 14 139 -23 89 -45 122 -51 161 -31 30 16 35 15 96 -9 49 -20 74 -24 107
-20 37 5 56 1 117 -29 l74 -36 39 21 40 20 70 -22 c57 -18 73 -20 92 -10 15 8
39 10 66 6 24 -4 59 -7 77 -6 17 0 52 0 77 0 110 0 127 0 168 0 108 0 184 -7
206 -19 20 -11 29 -10 62 5 22 9 42 15 45 11 3 -3 24 1 46 9 31 10 50 11 86 3
38 -8 53 -7 82 6 34 15 39 15 81 -3 41 -18 48 -18 73 -5 15 8 48 16 73 19 24
2 49 6 54 10 5 3 23 -2 41 -10 38 -20 57 -20 82 -1 11 8 30 15 43 15 12 0 37
8 55 18 18 10 39 17 46 14 11 -3 51 7 147 40 17 5 46 14 65 18 19 5 62 18 95
30 33 11 70 19 81 17 25 -4 40 6 76 54 21 29 36 38 70 42 102 15 127 24 162
62 29 30 40 36 61 31 26 -7 31 -3 81 62 14 17 35 32 46 32 12 0 38 19 61 45
30 33 48 45 68 45 17 0 42 12 61 29 19 16 51 33 72 36 32 6 43 16 72 60 45 71
60 85 93 85 30 0 42 10 101 88 34 44 46 52 73 52 27 0 40 9 70 45 21 25 44 45
51 45 26 0 66 42 97 101 37 69 70 99 109 99 33 0 56 24 115 125 63 107 71 115
117 115 43 0 23 -26 185 240 42 69 120 197 175 284 l99 159 -16 33 c-20 42
-13 68 34 142 91 141 100 163 94 223 -4 46 -1 63 21 107 17 33 26 68 26 98 0
32 7 56 23 77 21 31 28 79 26 207 0 19 -1 49 -1 65 0 17 2 120 5 230 l4 200
-28 59 c-24 47 -29 71 -29 130 0 39 -5 87 -11 106 -6 19 -15 51 -19 70 -5 19
-14 53 -19 75 -32 115 -31 121 8 177 28 39 47 55 86 70 28 11 52 24 53 29 9
24 77 96 106 111 17 9 47 32 65 52 24 25 44 36 64 36 17 0 36 9 47 23 81 96
76 93 148 107 78 14 101 11 187 -29 346 -162 378 -174 418 -164 21 6 53 7 70
4 39 -9 381 -6 424 3 19 4 53 1 88 -9 40 -12 102 -18 204 -19 140 -2 149 -4
220 -34 66 -29 80 -32 135 -26 59 6 68 4 177 -45 107 -47 117 -50 154 -40 21
6 50 8 65 5 51 -10 142 -59 152 -82 24 -53 -27 -128 -94 -138 -43 -7 -44 -8
-113 -128 -78 -134 -110 -168 -160 -168 -31 0 -36 -5 -80 -81 -62 -108 -109
-159 -146 -159 -33 0 -52 -23 -130 -155 -29 -49 -69 -115 -90 -145 -20 -30
-46 -71 -57 -90 -25 -45 -224 -370 -267 -435 -47 -71 -253 -410 -287 -471 -36
-65 -72 -101 -109 -109 -21 -5 -36 -19 -56 -53 -15 -26 -54 -91 -87 -144 -63
-100 -128 -207 -229 -373 -49 -82 -57 -101 -52 -129 5 -26 -1 -48 -25 -96 -30
-60 -31 -66 -19 -103 14 -42 15 -38 -39 -129 -15 -26 -15 -30 2 -59 17 -28 17
-33 1 -71 -11 -28 -14 -54 -9 -85 4 -28 2 -60 -6 -84 -10 -30 -11 -42 -2 -51
15 -15 15 -63 1 -89 -8 -16 -7 -28 4 -52 15 -32 13 -82 -4 -93 -5 -3 -9 -30
-9 -60 0 -31 -5 -64 -10 -75 -8 -14 -7 -27 5 -48 8 -17 15 -41 15 -54 0 -13 7
-32 15 -43 8 -10 15 -31 15 -45 0 -15 7 -32 15 -39 8 -7 15 -24 15 -39 1 -14
7 -37 15 -51 8 -14 14 -36 15 -49 0 -13 5 -40 11 -61 10 -33 20 -41 82 -71 85
-41 97 -52 97 -88 0 -16 6 -33 13 -39 6 -5 75 -38 152 -72 77 -34 146 -67 152
-72 7 -6 15 -25 19 -44 5 -25 17 -41 48 -62 36 -24 41 -32 38 -60 -3 -28 1
-33 35 -49 61 -28 72 -41 66 -77 -6 -38 2 -46 80 -71 47 -16 61 -17 77 -7 11
7 32 12 47 12 16 0 42 9 58 20 17 11 42 20 57 20 19 0 37 12 64 45 31 39 42
45 73 45 30 0 43 7 68 35 17 19 40 35 50 35 10 0 32 8 48 18 17 10 41 22 55
25 14 4 38 24 54 46 28 38 29 39 112 46 l83 7 33 44 c27 36 39 43 66 44 33 0
42 7 89 68 15 19 30 23 95 28 96 6 160 33 214 91 33 35 46 43 65 38 28 -6 35
-2 71 47 27 35 30 36 110 43 l83 7 33 50 c31 46 36 50 64 44 24 -5 35 -1 56
23 15 15 36 43 47 62 14 23 33 38 61 47 29 9 45 22 59 49 45 84 72 112 112
115 33 3 42 9 76 61 33 51 51 63 81 58 27 -5 52 20 97 97 28 48 56 90 63 94 6
4 27 8 47 8 33 0 39 5 83 70 44 67 48 70 85 70 34 0 42 5 65 40 18 27 36 43
55 46 16 4 44 21 62 40 18 19 43 34 56 34 12 0 44 20 73 45 31 27 56 42 65 39
24 -10 61 21 90 75 27 49 63 75 90 65 9 -4 28 9 51 35 24 26 46 41 61 41 38 0
58 15 93 70 36 57 55 70 98 70 26 0 34 8 60 53 34 60 52 78 96 92 23 7 39 24
61 67 48 89 78 118 125 118 37 0 41 3 65 48 37 70 47 80 90 84 31 2 44 9 58
33 98 156 101 160 139 163 33 3 88 41 88 62 0 4 21 10 47 13 30 3 52 11 58 22
50 85 69 108 98 120 17 7 45 27 61 44 21 21 39 31 60 31 39 0 49 7 69 47 27
52 81 103 110 103 15 0 41 13 60 30 19 17 49 33 66 36 19 4 45 22 65 45 27 33
39 39 71 39 32 0 43 6 72 40 19 22 41 40 49 40 8 0 31 16 53 35 21 19 43 35
48 35 6 0 38 9 72 20 34 10 68 17 76 14 9 -4 24 9 42 34 28 40 48 52 89 52 11
0 33 14 49 30 19 20 39 30 58 30 21 0 39 11 66 39 24 26 48 41 73 45 24 4 47
18 67 42 33 37 93 64 142 64 16 0 37 9 47 19 9 10 28 31 41 45 15 17 34 26 52
26 21 0 38 10 60 35 18 20 47 39 69 45 24 7 47 22 60 40 15 20 36 34 65 41 31
8 52 21 70 44 24 33 112 75 154 75 10 0 34 16 54 35 23 23 46 35 63 35 20 0
39 12 68 45 30 33 50 47 74 50 20 2 49 18 73 39 24 22 49 36 65 36 17 0 42 14
70 40 24 22 50 40 58 40 8 0 29 18 47 41 32 40 33 41 78 34 44 -7 89 -8 157
-5 17 1 51 -8 75 -21 24 -12 71 -25 104 -28 l60 -6 -1 -32 c-3 -53 -49 -120
-98 -143 -33 -16 -50 -34 -80 -85 -42 -72 -68 -95 -106 -95 -35 0 -39 -5 -95
-98 -47 -79 -92 -121 -115 -107 -21 13 -50 -19 -108 -119 -34 -57 -67 -108
-74 -112 -7 -5 -31 -11 -52 -14 -37 -5 -42 -10 -88 -89 -71 -125 -94 -151
-128 -151 -34 0 -60 -9 -60 -20 0 -13 -70 -128 -87 -141 -8 -7 -33 -15 -56
-18 l-40 -6 -149 -247 c-149 -248 -149 -248 -133 -277 21 -41 19 -51 -16 -117
-19 -37 -26 -60 -19 -62 24 -8 30 -51 14 -93 -16 -37 -15 -42 2 -74 l18 -34
-38 -61 c-36 -58 -37 -62 -22 -85 23 -35 20 -70 -11 -126 -25 -46 -25 -51 -13
-90 13 -39 12 -43 -19 -100 -25 -46 -31 -66 -26 -91 7 -38 -5 -77 -41 -130
l-26 -37 22 -29 c20 -27 21 -33 9 -66 -11 -29 -11 -40 -1 -54 26 -36 25 -47
-13 -117 -33 -63 -36 -74 -25 -94 8 -16 10 -41 6 -73 -4 -30 -2 -62 5 -83 11
-29 10 -40 -5 -73 -17 -37 -17 -42 -1 -98 21 -73 22 -110 4 -152 -9 -23 -10
-35 -3 -40 6 -4 23 -30 39 -59 28 -53 29 -69 4 -130 -12 -28 -11 -34 3 -45 14
-12 24 -51 32 -130 1 -15 8 -33 14 -41 7 -8 24 -36 38 -62 25 -48 25 -49 8
-86 -14 -32 -15 -43 -5 -68 7 -16 14 -41 15 -55 4 -32 1 -28 53 -55 43 -21 47
-28 58 -96 3 -22 18 -57 32 -77 14 -20 23 -43 21 -50 -3 -7 3 -29 14 -48 10
-19 18 -45 18 -58 0 -15 10 -28 32 -40 46 -25 70 -51 64 -70 -8 -24 3 -36 52
-61 33 -17 43 -27 42 -44 -4 -41 0 -47 43 -68 45 -23 59 -38 50 -52 -12 -19 8
-55 38 -67 20 -9 37 -26 45 -47 12 -26 27 -39 82 -63 95 -42 96 -43 96 -80 1
-32 5 -37 71 -70 39 -19 72 -37 75 -38 3 -2 5 -22 5 -45 0 -39 2 -42 40 -53
58 -17 182 -82 188 -98 3 -8 3 -23 0 -34 -4 -16 5 -26 36 -46 22 -14 43 -26
46 -26 3 0 64 -28 136 -62 l131 -62 -5 -33 c-3 -18 -1 -35 6 -41 7 -4 91 -46
187 -92 297 -141 443 -211 497 -238 48 -25 53 -25 70 -10 36 32 48 30 217 -50
118 -56 118 -56 148 -39 37 21 53 21 104 -2 41 -19 42 -19 70 0 28 18 67 17
88 -2 14 -12 63 -11 71 1 3 6 26 10 50 10 24 0 47 5 51 11 4 6 20 8 39 5 24
-5 39 -1 60 15 l27 22 53 -26 54 -26 26 21 c16 12 34 18 47 15 11 -3 38 3 59
14 21 10 47 19 59 19 11 0 20 5 20 10 0 6 10 15 23 21 19 8 33 6 70 -11 44
-21 46 -21 73 -3 16 10 42 19 59 19 59 3 146 21 157 32 7 7 22 12 35 12 13 0
26 7 29 15 4 10 20 15 48 15 22 0 50 7 60 15 26 20 41 19 93 -7 43 -22 45 -22
78 -4 19 10 43 16 54 13 24 -6 104 16 137 37 12 8 31 12 43 9 12 -3 28 1 37 8
15 13 74 25 167 36 26 3 47 9 47 15 0 5 9 23 20 39 17 23 26 27 49 23 17 -4
41 1 59 10 17 9 41 16 54 16 13 0 36 7 52 15 15 8 36 15 46 15 9 0 25 9 35 20
14 16 26 19 51 14 30 -6 35 -2 65 39 l31 45 93 7 c91 7 94 7 106 36 16 40 46
59 79 52 22 -4 31 1 47 24 11 15 23 36 26 46 4 9 13 17 21 17 9 0 36 7 62 16
45 15 47 15 70 -7 13 -12 24 -31 24 -41 0 -10 4 -18 10 -18 5 0 14 -9 20 -20
9 -18 4 -34 -33 -98 l-45 -77 25 -21 26 -21 -18 -47 c-18 -47 -18 -47 5 -71
23 -24 23 -25 6 -62 -22 -50 -15 -148 12 -176 20 -19 20 -20 -5 -74 l-25 -55
21 -19 c12 -11 21 -24 21 -29 0 -4 12 -22 26 -39 17 -20 24 -40 22 -58 -3 -25
4 -30 92 -74 52 -26 111 -53 130 -59 31 -11 280 -126 320 -149 8 -4 16 -26 18
-47 l3 -39 150 -70 c82 -38 158 -71 167 -73 9 -2 52 -20 94 -39 74 -34 78 -35
102 -19 14 9 40 16 59 16 18 0 37 4 43 9 15 14 121 42 138 35 8 -3 25 1 38 10
12 9 39 16 58 16 20 0 41 5 48 12 6 6 33 15 59 19 87 14 152 32 231 65 18 8
48 14 67 14 18 0 37 5 41 11 4 6 20 9 39 6 18 -3 38 0 44 6 6 6 32 14 58 18
113 19 144 27 161 42 10 10 28 17 40 17 12 0 32 14 48 35 22 29 33 35 63 35
20 0 46 7 58 15 12 9 35 14 50 13 15 -1 40 6 54 16 17 11 36 15 52 11 21 -6
29 0 56 39 29 42 35 46 74 46 37 1 45 5 68 39 23 33 31 37 58 33 18 -2 46 2
64 11 18 9 40 18 49 21 9 3 29 23 43 46 22 35 30 40 64 40 33 0 42 5 63 37 21
31 30 37 63 37 33 1 42 6 62 36 71 111 71 111 107 105 31 -6 37 -3 67 35 30
37 37 41 65 35 35 -6 53 11 87 86 20 44 33 55 74 64 27 5 38 17 64 65 30 56
57 79 78 66 21 -14 55 14 90 74 35 62 39 65 81 70 41 5 46 9 80 65 34 56 39
60 78 63 46 3 60 18 102 105 35 71 56 89 98 85 35 -3 36 -2 83 82 65 115 70
121 103 124 34 4 42 14 97 113 43 78 49 83 94 76 29 -5 32 -1 83 91 l53 95 47
3 47 3 68 128 69 127 39 0 c51 0 60 -21 32 -71 l-21 -38 24 -26 c14 -15 24
-38 24 -56 0 -17 6 -32 15 -35 21 -8 19 -37 -5 -84 -33 -64 -24 -103 14 -61
32 36 62 35 147 -5 75 -35 79 -36 103 -20 14 9 33 16 43 16 21 0 89 -23 99
-33 11 -11 62 -8 69 3 8 14 92 13 101 -1 4 -8 28 -9 71 -5 60 6 68 5 119 -25
36 -20 63 -29 77 -26 12 4 34 9 49 13 20 4 51 -3 107 -26 75 -30 81 -31 103
-16 32 23 50 20 124 -15 63 -31 65 -31 105 -15 34 14 47 15 77 4 21 -7 42 -16
48 -20 7 -5 26 0 45 11 43 25 89 18 89 -13 0 -11 -27 -68 -60 -126 -113 -201
-105 -190 -147 -190 -21 0 -43 -4 -49 -8 -5 -4 -36 -56 -68 -117 -72 -138 -80
-146 -125 -143 -36 3 -36 2 -87 -92 -74 -135 -87 -150 -134 -150 -38 0 -40 -2
-77 -67 -20 -38 -52 -92 -70 -120 -32 -51 -35 -53 -78 -53 -43 0 -45 -1 -64
-45 -30 -69 -130 -243 -144 -252 -7 -4 -30 -10 -51 -13 -40 -5 -41 -6 -107
-130 -95 -176 -127 -221 -169 -234 -37 -12 -27 4 -185 -281 -220 -397 -194
-360 -245 -363 -40 -3 -47 -7 -66 -40 -11 -20 -51 -91 -89 -157 -91 -162 -202
-361 -295 -530 -70 -126 -81 -140 -106 -143 -64 -6 -72 -12 -98 -65 -14 -30
-45 -88 -71 -131 -25 -42 -45 -80 -45 -85 0 -17 -26 -29 -70 -33 l-45 -4 -55
-105 c-70 -134 -74 -139 -121 -139 -45 0 -47 -3 -150 -191 -72 -131 -99 -165
-137 -172 -29 -6 -59 -50 -154 -227 -65 -120 -110 -195 -121 -202 -7 -4 -28
-8 -49 -8 l-36 0 -108 -197 c-59 -109 -139 -254 -179 -323 -39 -69 -86 -153
-105 -187 -33 -64 -38 -67 -100 -64 -26 1 -39 -21 -256 -418 -16 -31 -47 -87
-69 -126 -56 -102 -133 -244 -205 -375 -35 -63 -76 -136 -93 -163 l-29 -47 26
-25 c21 -19 26 -31 20 -48 -9 -30 -50 -111 -89 -177 -36 -61 -237 -424 -298
-539 -39 -72 -39 -75 -23 -101 9 -16 16 -37 16 -49 0 -11 -34 -83 -76 -158
-72 -132 -75 -140 -69 -187 5 -44 2 -57 -45 -147 l-50 -100 27 -24 28 -24 -37
-69 c-44 -80 -46 -92 -18 -110 29 -18 25 -45 -17 -119 -36 -65 -36 -67 -20
-95 20 -35 21 -58 5 -93 -10 -22 -9 -32 6 -60 17 -30 17 -40 6 -79 -7 -25 -9
-61 -5 -83 4 -27 1 -53 -11 -82 -16 -41 -16 -45 0 -73 15 -25 16 -36 7 -74 -9
-37 -9 -50 5 -75 15 -30 15 -35 -4 -84 l-20 -52 20 -17 c27 -24 19 -73 -22
-139 -31 -49 -31 -50 -10 -64 28 -20 25 -58 -10 -136 -28 -62 -29 -67 -15
-100 13 -31 13 -41 0 -83 -10 -35 -12 -60 -4 -97 5 -27 9 -51 9 -54 0 -2 37
-21 83 -43 80 -38 83 -41 93 -82 8 -40 14 -45 79 -79 43 -23 71 -44 73 -56 12
-69 35 -84 439 -274 l65 -31 34 18 c30 16 38 17 66 5 63 -25 72 -24 94 11 67
106 68 108 99 108 17 0 40 7 51 15 19 13 154 241 154 260 0 4 16 34 36 66 32
54 39 59 70 59 48 0 67 23 144 169 78 149 97 171 143 171 33 0 37 4 85 88 27
48 59 106 71 129 20 39 25 43 59 43 48 0 68 20 125 126 35 66 47 80 69 82 36
4 77 54 133 164 25 48 51 91 58 95 6 4 30 10 51 13 37 5 42 9 87 90 92 166
100 175 141 173 41 -3 26 -24 187 262 65 115 70 120 103 123 21 2 44 12 56 25
11 12 69 110 128 217 59 107 115 209 124 225 13 24 24 31 56 33 21 2 44 8 51
14 7 5 49 77 94 160 45 82 86 151 93 152 68 18 69 19 133 140 89 170 108 196
141 196 39 0 43 5 97 105 87 161 90 165 135 165 43 0 53 11 119 133 25 47 32
52 72 59 50 9 53 12 115 125 33 61 52 85 70 89 14 4 28 4 31 1 14 -15 45 19
84 90 49 91 61 103 105 103 34 0 39 4 87 80 13 19 41 44 62 56 29 15 52 39 84
92 42 69 45 72 83 72 35 0 41 4 66 47 39 67 66 93 91 86 33 -8 63 19 101 92
l34 67 37 -6 c34 -5 38 -3 64 34 24 35 33 40 66 40 41 0 40 -1 102 95 26 40
38 51 64 53 27 3 35 11 58 55 32 63 58 87 95 87 31 0 46 16 92 94 26 43 30 46
71 46 42 0 44 1 67 50 27 58 60 92 86 90 42 -5 52 3 92 65 39 62 43 65 80 65
38 0 41 2 78 68 31 53 46 69 74 78 27 9 44 27 81 85 74 116 72 114 112 111 35
-2 37 -1 72 67 37 70 51 81 107 81 24 0 33 10 67 73 60 111 66 117 111 117 36
0 41 4 66 48 40 69 54 82 88 82 42 0 47 4 95 92 51 93 64 108 99 108 40 1 66
27 106 108 26 52 44 76 64 83 51 21 56 26 91 88 33 61 35 63 67 58 18 -3 54
-15 79 -26 43 -19 46 -23 43 -53 -3 -33 -2 -33 112 -89 97 -47 116 -61 127
-88 12 -28 29 -40 116 -81 180 -84 258 -120 262 -120 2 0 74 -34 161 -76 150
-72 159 -75 197 -65 36 9 48 6 106 -20 187 -85 210 -93 251 -79 43 14 70 10
143 -25 60 -30 70 -30 103 -8 24 15 28 15 71 -6 l45 -22 35 22 35 22 52 -22
c61 -25 70 -26 86 -6 17 20 39 19 97 -6 43 -18 53 -19 88 -8 22 7 52 21 67 31
29 20 62 17 109 -10 23 -13 29 -13 57 2 17 9 42 16 55 16 14 0 40 7 60 15 19
8 37 11 41 8 4 -4 27 4 51 17 43 24 44 24 84 5 34 -15 48 -16 77 -7 20 6 42 8
50 5 8 -3 21 1 30 8 9 7 37 16 62 20 59 9 128 28 169 45 17 8 35 14 41 14 5 0
26 20 45 44 35 42 38 44 109 50 40 4 87 13 103 21 17 8 46 17 66 20 27 4 42
14 60 43 20 30 32 38 64 43 22 3 51 11 64 18 13 7 34 11 46 8 29 -5 35 -1 63
40 13 18 35 34 52 38 20 4 39 20 58 48 23 35 34 43 65 45 28 2 44 11 65 38 20
25 35 34 58 34 35 0 52 12 83 58 14 19 31 32 44 32 34 0 67 11 67 23 0 5 11
25 26 44 19 26 32 33 58 33 37 0 60 21 92 83 13 28 30 45 50 52 46 16 53 23
84 86 22 43 37 60 55 64 14 3 36 7 49 10 18 4 34 22 57 64 32 61 52 74 104 68
15 -1 27 13 53 63 32 64 34 65 79 70 l46 5 50 95 c27 52 55 98 61 102 6 4 25
8 43 8 40 0 63 29 126 156 40 80 50 92 85 106 35 13 44 26 87 109 70 137 78
147 126 151 40 3 42 5 93 93 51 89 52 90 93 93 42 3 42 3 93 97 51 94 63 107
97 99 29 -7 41 7 96 112 l52 99 45 5 45 5 71 145 c74 150 74 150 147 165 23 5
35 21 75 103 56 114 214 418 284 547 61 111 66 134 39 159 -12 11 -21 23 -21
28 0 14 131 278 141 284 16 9 10 37 -13 61 l-21 23 33 72 c18 40 40 88 48 107
15 32 15 35 -6 52 -12 9 -22 23 -22 31 -1 7 21 54 47 105 l48 92 -26 28 c-29
31 -29 30 14 121 l29 63 -21 23 c-27 29 -26 46 5 108 23 46 25 55 14 87 -10
31 -8 43 11 85 21 48 21 50 3 63 -10 7 -21 13 -26 13 -14 0 -9 28 13 65 26 44
19 55 -59 84 -95 35 -123 56 -120 91 3 34 -8 43 -100 81 -40 17 -54 28 -58 48
-10 47 -20 55 -160 116 -134 59 -139 62 -142 93 -4 42 -26 56 -202 130 -80 33
-179 75 -220 93 -69 29 -78 31 -115 20 -55 -17 -64 -16 -139 14 -55 22 -69 24
-88 14 -37 -20 -98 -31 -183 -34 -44 -2 -115 -8 -157 -14 -66 -10 -81 -10
-107 3 -38 20 -50 20 -73 -1 -10 -9 -37 -19 -61 -24 -23 -4 -55 -11 -72 -17
-16 -6 -55 -18 -85 -28 -30 -10 -68 -25 -85 -34 -18 -10 -56 -18 -94 -19 -35
-1 -71 -6 -80 -10 -33 -18 -141 -51 -166 -51 -24 0 -31 -5 -72 -58 -20 -26
-163 -81 -230 -89 -34 -4 -43 -10 -53 -33 -17 -42 -43 -61 -89 -67 -23 -3 -44
-10 -47 -14 -3 -5 -20 -9 -38 -9 -24 0 -41 -9 -66 -35 -19 -19 -39 -35 -45
-35 -5 0 -27 -9 -48 -20 -20 -11 -48 -20 -61 -20 -16 0 -36 -15 -60 -45 -31
-37 -43 -45 -70 -45 -27 0 -39 -7 -60 -35 -23 -30 -33 -35 -66 -35 -35 0 -43
-4 -65 -40 -19 -30 -33 -41 -62 -46 -21 -4 -50 -13 -65 -20 -15 -8 -37 -14
-49 -14 -22 0 -78 -42 -154 -117 -33 -34 -50 -43 -76 -43 -41 0 -50 -6 -74
-47 -20 -33 -52 -53 -88 -53 -13 0 -34 -13 -49 -30 -15 -18 -36 -30 -50 -30
-29 0 -47 -14 -77 -57 -17 -25 -30 -33 -52 -33 -36 0 -69 -16 -69 -34 0 -15
-42 -56 -58 -56 -6 0 -34 -20 -62 -45 -28 -25 -55 -43 -61 -40 -21 14 -51 -9
-75 -58 -36 -71 -52 -87 -88 -87 -23 0 -40 -10 -67 -40 -29 -32 -44 -40 -71
-40 -30 0 -38 -6 -78 -67 -41 -62 -49 -68 -84 -73 -37 -5 -42 -10 -72 -65 -26
-49 -39 -61 -66 -68 -41 -10 -49 -19 -83 -85 -30 -58 -50 -73 -91 -70 -18 2
-31 -4 -38 -16 -42 -71 -74 -111 -91 -114 -56 -8 -65 -15 -100 -71 -34 -56
-38 -60 -78 -63 -40 -3 -43 -6 -74 -62 -37 -70 -55 -86 -99 -86 -29 0 -37 -6
-60 -47 -39 -68 -54 -83 -83 -83 -36 0 -42 -6 -84 -76 -30 -50 -45 -64 -79
-78 -37 -14 -48 -25 -77 -81 -51 -100 -66 -115 -111 -115 -37 0 -40 -2 -72
-62 -32 -61 -35 -63 -78 -68 -43 -5 -46 -8 -82 -69 -42 -73 -55 -84 -100 -79
-29 3 -33 -1 -70 -72 -55 -108 -62 -115 -111 -115 l-42 0 -50 -95 c-46 -88
-53 -96 -91 -108 -35 -11 -45 -21 -64 -62 -30 -64 -46 -78 -95 -82 -39 -3 -41
-5 -83 -83 -50 -94 -74 -118 -112 -110 -33 7 -38 1 -90 -103 -26 -53 -46 -82
-58 -83 -9 -1 -30 -2 -45 -3 -26 -1 -36 -13 -87 -101 l-58 -100 -43 -3 -44 -3
-49 -90 c-38 -69 -55 -91 -75 -95 -14 -3 -31 -7 -38 -9 -7 -2 -26 -29 -44 -60
-35 -61 -52 -75 -95 -72 -25 2 -32 -6 -79 -88 l-51 -90 -46 -3 -46 -3 -43 -82
c-53 -104 -65 -117 -105 -117 -41 0 -52 -11 -103 -104 -41 -75 -66 -99 -99
-95 -36 3 -42 -3 -88 -86 -47 -84 -63 -98 -114 -99 -20 -1 -31 -14 -62 -75
-48 -93 -64 -111 -99 -111 -24 0 -33 -10 -69 -75 -41 -75 -41 -75 -84 -75 -23
0 -47 -5 -54 -12 -12 -12 -98 -29 -147 -28 -16 0 -44 -7 -61 -16 -30 -16 -33
-16 -83 6 -34 16 -51 30 -51 42 0 21 66 128 83 133 7 2 24 6 38 9 19 4 37 27
78 100 l52 95 46 3 c44 3 48 6 70 48 105 198 115 211 151 191 32 -17 43 -3
135 169 60 113 163 304 224 415 93 168 163 295 219 398 30 56 63 108 72 115 9
6 32 12 51 12 36 0 37 1 106 127 39 70 92 168 118 218 56 103 80 129 114 120
28 -7 57 20 84 79 11 22 49 95 87 160 58 104 71 121 99 128 37 9 50 27 123
161 50 90 56 97 84 97 17 0 36 4 42 8 6 4 37 57 69 117 31 61 62 113 69 117 6
4 25 8 43 8 39 0 42 3 100 108 l46 82 44 0 c39 0 46 4 61 31 74 134 89 154
123 157 34 4 79 36 79 57 0 7 14 31 30 53 26 37 35 42 69 42 38 0 41 2 76 65
27 49 41 65 58 65 35 0 49 14 97 102 46 83 52 89 121 102 25 5 49 41 49 73 0
9 -10 27 -21 39 l-22 23 26 48 c71 136 80 148 124 151 57 4 70 22 38 52 -14
13 -25 30 -25 37 0 8 26 62 59 121 32 59 79 148 106 197 26 50 51 94 56 99 5
5 28 12 51 15 42 6 43 7 98 106 78 143 74 138 106 137 44 0 59 12 92 75 92
175 86 168 131 174 22 3 44 9 48 13 10 10 66 106 100 174 20 38 35 54 53 58
61 12 76 21 96 59 11 22 40 76 64 120 24 44 48 90 54 103 6 12 30 29 53 38 41
16 47 24 119 160 l76 143 41 3 c35 3 45 9 69 43 15 22 39 64 54 94 26 51 26
55 10 81 -9 16 -16 38 -16 49 0 26 -33 92 -54 110 -9 8 -16 27 -16 43 0 16 -9
41 -20 55 -11 14 -20 34 -20 44 0 11 -9 36 -20 56 -11 21 -20 45 -20 53 0 9
-6 24 -14 35 -7 11 -16 32 -20 47 -4 19 -19 34 -45 48 -25 12 -43 30 -49 50
-11 30 -56 56 -163 95 -20 7 -61 25 -90 38 -105 49 -132 57 -194 57 -49 0 -73
6 -106 25 -47 26 -117 33 -136 14 -13 -13 -54 -1 -137 37 -52 24 -72 23 -81
-6 -12 -38 -53 -70 -89 -70 -33 0 -38 -4 -62 -52 -27 -55 -39 -66 -88 -83 -22
-8 -38 -30 -75 -100 -47 -92 -51 -95 -122 -109 -18 -4 -31 -17 -44 -45 -26
-59 -51 -81 -90 -81 -39 0 -47 -7 -83 -75 -26 -48 -29 -50 -75 -53 l-47 -3
-44 -88 c-50 -100 -58 -108 -112 -119 -36 -7 -42 -14 -82 -87 -23 -44 -47 -84
-52 -89 -5 -5 -29 -12 -52 -15 -43 -6 -43 -6 -99 -111 -50 -94 -60 -108 -103
-130 -42 -22 -53 -36 -96 -117 -97 -180 -102 -187 -147 -198 -40 -10 -73 -30
-73 -45 0 -9 -62 -113 -80 -135 -7 -9 -29 -15 -51 -15 -35 0 -40 -3 -54 -37
-9 -20 -27 -52 -41 -70 -21 -27 -32 -33 -63 -33 -32 0 -43 -6 -65 -35 -22 -28
-34 -35 -61 -35 -27 0 -38 -7 -56 -32 -29 -42 -47 -55 -81 -62 -20 -4 -34 -18
-52 -54 -30 -59 -47 -74 -94 -81 -33 -6 -40 -13 -75 -76 -47 -88 -66 -106
-112 -114 -33 -5 -42 -14 -75 -71 -78 -132 -70 -124 -130 -133 -30 -4 -66 -8
-79 -8 -13 -1 -56 -14 -95 -30 -39 -16 -79 -29 -89 -29 -10 0 -32 -7 -49 -16
-32 -17 -62 -15 -115 7 -28 11 -36 11 -65 -5 -33 -18 -34 -18 -102 13 -78 35
-97 37 -130 15 -23 -14 -32 -11 -197 66 -225 106 -254 116 -296 100 -29 -10
-38 -9 -66 8 -17 10 -48 25 -67 32 -19 7 -63 26 -98 41 -74 34 -76 35 -117 9
-32 -19 -32 -19 -70 0 -46 24 -67 25 -103 6 -25 -13 -33 -12 -75 6 -27 12 -47
27 -47 36 0 18 100 208 175 334 72 119 79 141 54 172 -26 33 -24 42 16 109 41
68 42 73 15 89 -23 15 -25 38 -8 86 12 31 11 36 -10 53 -27 21 -24 39 13 104
56 99 65 117 65 134 0 10 -7 24 -16 32 -22 18 -12 60 37 141 38 65 40 70 28
106 -15 48 -23 65 -59 132 -17 30 -30 65 -30 78 0 17 -9 27 -37 39 -53 21 -73
42 -73 74 0 21 -7 32 -29 44 -45 23 -62 44 -55 69 6 26 -7 39 -59 55 -38 13
-58 36 -50 59 3 7 -5 28 -16 48 -12 19 -21 42 -21 50 0 8 -4 22 -9 32 -22 41
-51 109 -51 121 0 6 7 26 16 43 15 29 15 32 -6 60 l-22 30 23 50 23 50 -22 18
c-12 10 -22 23 -22 28 0 6 -12 25 -26 42 l-27 31 23 49 23 48 -22 28 c-11 14
-21 37 -21 50 0 12 -4 26 -10 29 -5 3 -10 18 -10 33 0 15 -10 48 -22 73 -18
38 -31 51 -76 73 -48 24 -53 30 -48 51 7 26 -1 35 -51 65 -25 15 -32 27 -35
55 -3 35 -4 36 -123 91 -66 30 -129 59 -140 64 -11 5 -87 40 -170 79 -82 38
-174 79 -202 90 -29 11 -132 59 -229 106 -97 47 -182 85 -190 85 -7 0 -16 5
-20 11 -6 11 -44 8 -121 -9 -27 -6 -51 -20 -68 -41 -23 -26 -34 -31 -71 -31
-56 0 -100 -21 -140 -66 -20 -24 -44 -38 -73 -45 -27 -6 -52 -20 -67 -39 -17
-20 -38 -31 -67 -35 -41 -6 -43 -8 -92 -101 -59 -112 -78 -132 -134 -142 -42
-7 -43 -8 -110 -127 -37 -66 -78 -139 -91 -162 l-25 -42 24 -32 24 -32 -42
-81 c-37 -73 -123 -226 -220 -393 -20 -34 -69 -122 -110 -195 -105 -188 -113
-198 -164 -198 l-42 0 -39 -75 c-47 -90 -70 -112 -115 -117 -37 -3 -38 -5
-113 -141 -37 -68 -70 -97 -109 -97 -35 0 -53 -18 -91 -93 -49 -98 -77 -134
-123 -158 -37 -20 -52 -37 -87 -102 -45 -84 -79 -119 -112 -116 -12 1 -26 1
-33 0 -6 -1 -38 -47 -69 -103 -76 -137 -79 -139 -124 -132 l-37 6 -49 -86
c-124 -218 -126 -221 -168 -224 -28 -3 -45 -12 -68 -38 -24 -27 -37 -34 -68
-34 -33 0 -41 -5 -59 -35 -11 -19 -33 -40 -48 -45 -16 -6 -40 -17 -55 -25 -14
-8 -41 -15 -60 -15 -26 -1 -37 -7 -53 -33 -17 -27 -27 -32 -60 -32 -22 0 -50
-6 -62 -13 -12 -7 -35 -12 -52 -12 -25 0 -34 -7 -53 -40 -23 -40 -32 -45 -76
-41 -13 1 -30 -3 -37 -9 -18 -15 -112 -40 -151 -40 -25 0 -34 -6 -44 -30 -16
-40 -36 -55 -70 -52 -16 1 -45 -7 -64 -19 -20 -12 -43 -18 -52 -15 -9 3 -31
-1 -49 -10 -19 -8 -45 -14 -59 -12 -19 2 -30 -5 -48 -32 -20 -29 -30 -35 -59
-35 -18 0 -48 -8 -66 -17 -18 -10 -41 -18 -52 -18 -11 0 -22 -8 -26 -17 -3
-10 -15 -29 -26 -42 -20 -25 -53 -31 -155 -31 -37 0 -43 -3 -54 -30 -16 -38
-46 -60 -81 -60 -15 0 -39 -6 -54 -14 -15 -8 -33 -12 -40 -10 -7 3 -31 -4 -54
-15 -22 -12 -48 -21 -58 -21 -10 -1 -27 -15 -38 -33 -16 -26 -28 -33 -59 -35
-21 -2 -49 -10 -61 -18 -13 -8 -33 -12 -46 -9 -28 6 -35 2 -72 -47 -18 -24
-36 -38 -50 -38 -12 0 -37 -9 -56 -21 -22 -13 -46 -19 -66 -17 -28 3 -34 0
-43 -24 -6 -15 -23 -32 -39 -39 -15 -6 -46 -19 -68 -30 -23 -10 -50 -16 -62
-13 -13 4 -31 -1 -45 -10 -12 -9 -34 -16 -48 -16 -14 -1 -36 -7 -50 -15 -14
-8 -41 -14 -62 -15 -31 0 -39 -5 -57 -36 -20 -33 -24 -36 -56 -30 -24 5 -42 2
-57 -9 -13 -8 -35 -15 -50 -15 -26 0 -69 -15 -131 -46 -16 -8 -41 -14 -56 -14
-15 0 -36 -7 -47 -15 -26 -20 -40 -19 -92 6 -39 19 -48 20 -82 9 -21 -7 -43
-9 -49 -6 -6 4 -23 0 -38 -8 -42 -23 -114 -47 -150 -50 -17 -1 -41 -10 -52
-20 -12 -11 -29 -16 -41 -13 -12 3 -36 -3 -54 -14 -33 -19 -33 -19 -80 2 -36
16 -57 19 -89 14 -36 -7 -50 -3 -113 31 l-73 39 -26 -25 c-24 -22 -28 -23 -63
-11 -20 8 -104 46 -187 86 -82 39 -175 83 -205 95 -76 33 -92 48 -85 80 5 22
-1 30 -40 58 -25 17 -45 38 -45 45 0 8 -9 22 -20 32 -12 11 -20 31 -20 50 0
18 -7 38 -15 45 -8 7 -15 21 -15 32 0 10 -9 37 -20 58 l-20 40 21 45 c16 35
19 49 10 58 -6 6 -11 21 -11 32 0 12 -9 30 -20 40 -25 23 -25 38 1 92 l21 44
-21 20 c-11 11 -21 32 -21 46 0 15 -10 37 -22 50 l-21 23 23 50 23 50 -21 23
c-26 28 -27 40 -6 72 12 18 13 31 6 58 -10 36 -7 47 29 105 13 22 12 25 -8 39
-24 16 -31 57 -13 68 15 9 12 40 -7 74 -18 30 -17 31 7 76 24 44 24 47 8 59
-25 18 -23 38 11 104 29 57 29 57 11 92 -21 41 -23 35 73 195 58 97 222 379
267 460 51 91 102 175 113 184 7 5 30 11 52 13 37 3 42 8 76 63 32 54 40 61
75 65 35 4 42 11 75 65 34 57 39 60 85 68 l49 8 94 162 c150 259 232 398 271
462 20 33 39 65 41 70 2 6 31 55 63 110 33 55 118 200 190 322 72 123 146 249
165 280 19 32 61 104 94 161 54 94 87 129 110 115 22 -13 51 19 114 125 39 64
96 161 128 214 48 81 63 99 95 112 45 18 52 28 155 208 47 82 87 140 98 144
24 8 48 12 68 13 8 1 31 29 51 64 87 153 140 243 235 402 90 150 100 172 89
190 -7 11 -20 42 -30 68 -17 45 -17 51 -2 91 l16 42 -35 64 c-19 36 -35 73
-35 82 0 9 -20 31 -45 48 -25 17 -45 38 -45 46 0 8 -18 34 -39 57 -22 23 -43
55 -47 71 -5 22 -22 35 -80 64 -66 32 -75 40 -92 82 -18 42 -25 49 -78 70 -33
13 -87 38 -121 56 -78 41 -124 50 -172 34 -35 -11 -42 -10 -112 27 -70 36 -79
38 -154 36 -63 -2 -91 2 -133 19 -47 20 -58 21 -98 10 -38 -10 -50 -10 -76 4
-31 16 -45 16 -148 -6 -30 -7 -77 -9 -105 -6 -32 4 -67 1 -95 -8 -25 -8 -76
-21 -115 -29 -38 -8 -97 -23 -130 -32 -33 -9 -73 -17 -90 -16 -16 0 -77 -15
-135 -35 -73 -25 -114 -34 -135 -29 -16 3 -43 8 -58 12 -15 3 -47 1 -70 -5
-23 -6 -69 -16 -102 -22 -33 -7 -71 -17 -85 -23 -36 -15 -112 -36 -135 -37
-11 0 -33 -16 -48 -35 -15 -19 -35 -35 -43 -35 -8 0 -39 -9 -70 -19 -30 -11
-61 -18 -69 -15 -7 3 -27 -1 -43 -10 -16 -8 -43 -15 -58 -15 -35 1 -102 -14
-129 -28 -11 -6 -47 -18 -80 -28 -33 -9 -75 -23 -93 -31 -18 -8 -42 -14 -54
-14 -12 0 -37 -14 -54 -31 -18 -17 -50 -35 -71 -40 -21 -4 -65 -17 -98 -29
-57 -20 -112 -34 -180 -47 -16 -3 -44 -19 -62 -35 -30 -29 -61 -40 -163 -57
-25 -4 -55 -13 -67 -19 -12 -7 -33 -12 -47 -12 -18 0 -30 -9 -41 -30 -23 -44
-98 -73 -219 -85 -65 -6 -73 -10 -113 -50 -33 -34 -52 -44 -85 -48 -104 -13
-185 -44 -230 -90 -19 -19 -37 -27 -61 -27 -18 0 -42 -7 -53 -15 -10 -8 -31
-15 -46 -15 -19 0 -39 -13 -64 -40 -32 -34 -43 -40 -78 -40 -73 -1 -119 -17
-151 -53 -30 -35 -131 -87 -168 -87 -11 0 -39 -18 -62 -39 -39 -36 -48 -40
-119 -46 -55 -5 -79 -12 -86 -24 -25 -42 -44 -55 -107 -72 -37 -10 -77 -19
-89 -19 -11 0 -31 -12 -45 -26 -26 -29 -120 -75 -159 -78 -14 -1 -43 -21 -67
-45 -28 -28 -48 -41 -58 -37 -9 3 -32 -1 -52 -9 -19 -8 -44 -15 -55 -15 -10 0
-36 -18 -57 -40 -33 -34 -43 -40 -66 -34 -33 8 -85 -17 -140 -68 -27 -25 -56
-41 -85 -47 -99 -21 -124 -31 -154 -60 -19 -19 -50 -35 -76 -40 -25 -6 -57
-13 -73 -17 -71 -17 -76 52 -11 157 121 192 125 197 177 206 32 5 44 14 73 57
19 28 34 54 34 57 0 11 140 232 163 257 13 14 32 22 53 22 36 0 40 4 105 108
32 52 47 66 91 85 45 20 61 35 102 96 47 70 63 84 117 95 16 4 38 24 60 56 20
30 47 57 66 65 17 7 54 42 82 78 53 68 66 77 107 77 18 0 33 13 59 54 30 47
40 55 75 61 30 5 51 18 77 46 24 25 45 39 61 39 18 0 43 18 83 60 37 39 69 62
89 66 23 5 40 20 67 61 24 37 50 61 77 75 30 14 55 41 95 99 47 69 59 79 90
84 55 9 61 15 115 111 75 132 92 152 154 182 53 26 60 33 122 139 88 150 117
185 171 203 35 12 51 26 78 67 30 45 42 55 85 68 40 11 57 24 79 55 24 34 38
42 97 60 47 14 84 33 113 59 24 20 59 43 78 50 19 8 54 36 79 63 30 32 61 54
93 66 42 15 53 25 80 74 128 227 149 255 196 263 41 7 64 27 100 87 38 64 81
92 173 112 15 3 47 24 72 45 25 22 55 43 67 46 12 4 42 20 67 36 24 15 57 31
72 34 22 5 39 23 73 78 96 157 96 159 90 219 -5 48 -2 62 22 104 40 70 72 101
122 120 31 12 53 30 75 62 21 30 47 52 82 68 28 13 67 33 86 44 19 11 44 20
56 20 38 0 88 22 122 53 17 17 58 45 89 61 47 25 64 42 90 86 47 82 81 118
134 146 27 13 59 38 71 55 13 17 48 43 78 58 45 22 63 38 102 96 26 39 65 104
88 145 40 75 74 133 139 246 41 70 83 111 122 119 17 4 44 25 66 52 20 24 58
55 84 68 26 14 61 41 78 62 34 43 123 110 192 147 25 14 58 41 73 60 15 20 53
49 84 65 74 37 89 55 157 181 80 149 128 186 333 257 140 48 165 66 213 153
17 30 62 105 100 166 75 121 104 145 196 164 28 6 75 27 104 46 30 19 72 39
94 45 44 12 153 74 203 114 18 15 44 47 59 72 19 33 40 51 82 73 65 32 72 39
121 123 20 36 49 70 69 82 65 39 116 94 161 172 38 67 55 87 122 135 54 40 84
70 99 100 39 76 96 144 153 182 39 26 68 57 102 109 29 45 66 87 95 108 43 31
69 64 130 166 10 18 49 52 86 76 38 24 79 58 93 74 14 17 43 41 65 54 22 12
65 45 96 73 70 63 131 107 189 137 25 12 71 46 102 75 31 28 90 73 132 98 41
26 81 57 89 70 8 12 41 40 73 61 33 22 84 62 114 90 46 43 89 68 190 115 20 9
32 73 28 143 -4 54 -8 61 -56 110 -36 36 -62 76 -85 130 -46 105 -136 207
-220 248 -33 16 -88 56 -123 89 -34 33 -66 60 -72 60 -5 0 -34 22 -64 48 -31
27 -90 68 -131 90 -42 23 -88 57 -102 77 -26 33 -112 75 -153 75 -9 0 -42 -15
-73 -33z m-15459 -9824 c30 -28 30 -28 18 -84 -10 -50 -9 -60 9 -100 12 -24
26 -60 32 -79 5 -19 15 -50 20 -68 7 -24 6 -41 -4 -66 -14 -33 -30 -325 -26
-480 1 -47 -4 -68 -25 -104 -24 -41 -25 -48 -14 -82 16 -48 11 -62 -68 -189
-112 -182 -122 -203 -116 -238 5 -27 -4 -48 -52 -129 -33 -53 -75 -123 -94
-155 -168 -282 -200 -326 -246 -345 -36 -15 -75 -66 -154 -199 -68 -114 -108
-155 -149 -155 -25 0 -35 -7 -57 -42 -44 -72 -74 -98 -110 -98 -29 0 -38 -7
-74 -60 -44 -65 -63 -80 -91 -73 -11 3 -30 -2 -44 -11 -13 -9 -36 -16 -51 -16
-37 0 -125 -45 -159 -80 -33 -34 -50 -37 -100 -13 -31 15 -40 15 -68 4 -18 -7
-44 -15 -58 -16 -14 -2 -36 -8 -47 -14 -11 -6 -32 -11 -47 -11 -14 0 -40 -7
-57 -16 -29 -15 -44 -15 -111 2 -20 5 -33 1 -47 -11 -19 -17 -22 -17 -75 0
-50 18 -57 18 -88 3 -30 -14 -36 -14 -79 2 -31 12 -62 16 -97 12 -33 -3 -69 2
-103 13 -45 14 -58 15 -91 4 -40 -13 -39 -14 -154 32 -28 11 -35 11 -51 -4
-25 -23 -34 -22 -125 13 -74 29 -78 30 -108 14 -39 -20 -65 -15 -160 29 -164
76 -163 76 -194 60 -40 -22 -67 -13 -280 84 -179 83 -194 88 -260 88 -63 1
-80 6 -165 49 -52 27 -110 54 -130 61 -19 8 -123 55 -230 105 -107 51 -235
109 -284 131 -109 47 -133 68 -141 123 -3 22 -14 62 -23 88 -15 44 -15 50 1
82 13 27 14 42 6 72 -13 44 3 87 66 179 23 33 61 93 85 133 54 91 86 125 136
140 33 10 46 24 91 96 52 83 68 96 134 110 16 4 36 22 53 48 15 24 44 54 64
68 20 13 55 40 77 61 22 20 53 40 68 43 16 4 51 22 79 41 28 19 56 35 64 35 8
0 31 16 53 35 27 25 63 43 120 60 45 13 94 33 109 43 46 33 115 64 167 77 28
7 84 23 125 35 41 12 97 28 124 36 26 8 59 14 72 14 12 0 26 5 29 10 3 6 17
10 31 10 14 0 38 7 53 15 42 21 213 76 256 81 42 6 193 47 270 75 82 29 168
52 354 95 57 13 128 35 157 48 64 29 110 37 236 40 73 2 119 10 218 39 111 33
132 36 200 31 65 -5 85 -2 150 21 59 20 105 28 215 34 77 5 151 13 165 19 62
24 100 32 155 32 54 0 95 7 173 32 24 7 51 6 97 -3 58 -11 68 -11 127 10 71
25 162 48 195 50 13 0 36 -11 53 -26z m18620 -3183 c12 -7 12 -16 1 -59 -7
-28 -10 -59 -6 -70 3 -11 -2 -43 -12 -70 -16 -47 -16 -51 0 -69 23 -25 21 -45
-8 -104 -29 -58 -31 -71 -10 -88 19 -16 19 -53 -1 -92 -15 -28 -14 -33 2 -63
20 -38 16 -63 -25 -127 -35 -56 -54 -60 -118 -26 -27 14 -47 34 -55 53 -6 16
-19 38 -29 47 -25 25 -35 128 -15 166 14 28 14 32 -4 55 -11 14 -20 31 -20 39
0 7 41 85 91 173 50 88 101 179 112 203 18 36 25 42 51 42 17 0 38 -4 46 -10z
m-1083 -1095 c39 -24 47 -36 46 -73 -1 -14 32 -36 110 -76 40 -20 42 -23 40
-64 -2 -43 -2 -43 53 -67 48 -21 54 -27 54 -54 0 -27 21 -61 39 -61 19 0 51
-43 51 -69 0 -16 7 -34 15 -41 28 -23 23 -38 -72 -210 -38 -68 -169 -296 -212
-368 -17 -30 -38 -68 -46 -85 -8 -18 -34 -63 -58 -102 -41 -65 -47 -70 -83
-73 -47 -4 -59 -13 -84 -66 -10 -22 -37 -72 -59 -111 -39 -69 -40 -70 -85 -73
-42 -3 -47 -6 -77 -55 -36 -58 -55 -76 -84 -77 -12 0 -34 -19 -52 -45 -29 -38
-38 -44 -75 -47 -42 -3 -44 -5 -76 -65 -32 -61 -34 -63 -72 -63 -34 0 -44 -6
-71 -40 -27 -33 -39 -40 -68 -40 -20 -1 -47 -7 -61 -15 -14 -7 -37 -11 -52 -8
-21 4 -29 1 -34 -13 -11 -31 -46 -64 -68 -64 -27 0 -35 -7 -69 -52 -23 -31
-34 -38 -63 -38 -19 0 -48 -7 -63 -14 -15 -8 -37 -13 -48 -10 -15 4 -28 -4
-49 -30 -23 -28 -36 -36 -61 -36 -18 0 -47 -6 -65 -14 -18 -8 -45 -17 -60 -21
-18 -3 -35 -19 -50 -45 -21 -36 -27 -40 -63 -40 -22 0 -49 -7 -59 -15 -11 -8
-30 -15 -42 -15 -13 0 -26 -4 -29 -10 -3 -5 -23 -10 -44 -10 -21 0 -51 -7 -67
-15 -16 -8 -39 -12 -52 -8 -14 3 -30 -1 -42 -12 -14 -13 -28 -15 -59 -10 -58
10 -91 39 -91 80 0 19 -4 37 -10 40 -5 3 -10 21 -10 39 0 20 -8 40 -20 51 -11
10 -20 26 -20 35 0 9 -9 25 -20 35 -27 24 -25 54 3 64 12 5 25 7 30 4 20 -12
49 14 91 83 25 41 46 77 46 79 0 7 92 159 108 178 8 9 28 17 43 17 48 0 58 10
116 114 180 322 193 342 234 351 31 7 60 45 120 155 23 43 26 45 69 45 44 0
45 1 75 56 41 76 54 91 77 83 39 -12 63 4 98 66 33 58 35 60 75 60 l41 0 58
100 c58 100 58 100 97 100 36 0 42 4 67 47 36 62 57 83 92 89 24 5 38 22 80
95 49 84 53 89 85 89 52 0 64 9 95 69 34 68 43 76 92 85 33 6 41 14 70 69 32
60 35 62 75 65 37 3 46 8 77 53 42 57 59 61 123 24z m11901 -459 c15 -9 15
-25 -1 -56 -8 -14 -49 -92 -92 -175 -43 -82 -109 -208 -147 -280 l-69 -129 25
-19 c14 -10 26 -25 26 -33 0 -15 -56 -131 -150 -309 -29 -55 -79 -152 -112
-215 -117 -223 -159 -300 -174 -315 -9 -8 -32 -15 -52 -15 l-37 0 -99 -193
c-54 -105 -126 -241 -159 -301 l-60 -108 -38 6 -38 6 -34 -67 c-106 -213 -128
-243 -176 -243 -36 0 -41 -5 -86 -93 -48 -93 -69 -114 -115 -119 -31 -3 -38
-9 -64 -56 -22 -43 -37 -57 -72 -72 -32 -14 -48 -30 -64 -60 -30 -60 -55 -80
-95 -80 -33 0 -37 -3 -70 -69 -19 -38 -39 -72 -44 -76 -6 -3 -27 -7 -48 -9
-22 -2 -41 -10 -47 -20 -33 -55 -48 -66 -87 -66 -36 0 -40 -3 -64 -50 -35 -69
-58 -90 -99 -90 -28 0 -37 -6 -55 -36 -14 -23 -35 -41 -61 -51 -22 -9 -40 -19
-40 -23 0 -4 -11 -19 -25 -34 -17 -18 -34 -26 -58 -26 -29 0 -39 -6 -61 -40
-21 -32 -32 -40 -57 -40 -23 0 -41 -10 -66 -37 -28 -29 -46 -39 -87 -45 -28
-5 -66 -11 -84 -15 -26 -4 -42 -17 -69 -54 -19 -27 -42 -49 -52 -49 -9 0 -33
-9 -54 -20 -20 -11 -50 -20 -65 -20 -15 0 -32 -4 -38 -9 -8 -8 -37 -14 -144
-27 -25 -3 -49 -10 -54 -15 -6 -5 -24 -9 -40 -9 -17 -1 -42 -7 -56 -15 -14 -8
-37 -14 -53 -15 -15 0 -44 -9 -64 -20 -21 -11 -44 -20 -51 -20 -7 0 -23 -7
-35 -15 -13 -8 -36 -14 -52 -14 -66 0 -126 -8 -137 -19 -7 -7 -28 -12 -47 -12
-20 0 -45 -7 -55 -15 -11 -8 -29 -15 -40 -15 -30 0 -125 -38 -154 -61 -30 -23
-57 -24 -97 -3 -24 12 -38 13 -65 5 -32 -9 -47 -13 -123 -28 -18 -3 -41 1 -61
12 -31 17 -35 17 -57 2 -34 -25 -65 -21 -143 17 -80 39 -138 65 -276 125 -52
23 -110 49 -128 57 -30 13 -33 18 -30 51 3 33 -1 39 -25 51 -34 17 -31 34 21
112 34 51 41 55 79 58 l43 3 46 89 c43 84 48 90 82 95 56 9 60 14 114 110 27
49 51 92 54 94 3 3 26 5 51 6 45 0 46 1 82 59 27 45 44 61 71 70 30 10 42 24
88 109 53 97 53 97 91 97 44 0 53 9 96 89 28 53 32 56 74 61 44 5 45 6 93 90
47 84 56 92 119 105 19 3 36 21 61 62 30 52 38 58 70 61 40 3 67 31 107 110
20 40 24 42 66 42 44 0 44 0 81 65 28 52 42 67 65 72 34 7 45 18 84 92 28 53
32 56 75 61 46 5 56 15 102 99 13 24 24 31 48 31 37 0 70 16 70 33 0 7 13 33
29 58 26 41 35 48 76 55 44 8 48 13 79 69 29 53 36 60 67 63 44 5 53 13 84 79
14 30 31 56 38 58 7 2 23 6 37 9 16 4 35 23 52 50 24 41 30 45 70 48 41 3 44
5 75 62 35 68 55 86 93 86 17 0 38 13 60 35 25 26 42 35 66 35 26 0 37 7 54
35 24 38 48 55 79 55 11 0 26 7 33 16 39 48 60 64 82 64 19 0 31 10 48 40 13
24 32 43 46 45 12 3 33 7 47 10 15 3 35 21 50 45 22 35 30 40 63 40 31 0 41 6
61 35 18 27 31 35 53 35 16 0 39 5 51 12 12 7 40 14 62 17 32 5 44 13 64 44
19 29 31 37 55 37 17 0 46 9 64 20 18 11 38 20 45 20 6 0 28 18 48 40 24 26
45 40 62 40 13 0 41 7 60 15 20 8 48 15 62 15 18 0 31 10 49 39 21 32 31 39
68 44 152 22 217 49 253 106 20 33 31 41 55 41 16 0 39 4 52 9 13 5 57 14 98
21 41 6 87 18 102 26 14 8 42 14 61 14 30 0 39 6 58 36 15 25 39 44 76 60 29
13 60 24 67 24 8 0 33 8 56 19 37 16 48 17 94 7 29 -7 58 -16 64 -20z"/>
<path d="M32414 28849 c-29 -18 -51 -18 -106 3 -22 8 -32 6 -54 -11 -33 -26
-37 -26 -91 0 l-43 21 -27 -22 c-19 -15 -35 -19 -55 -15 -17 4 -36 1 -50 -9
-12 -9 -34 -16 -48 -16 -15 0 -35 -7 -46 -15 -10 -8 -28 -15 -38 -15 -11 0
-34 -5 -52 -12 -28 -10 -41 -7 -110 20 -90 37 -97 38 -114 17 -16 -19 -53 -19
-89 -1 -25 13 -31 13 -61 -6 -22 -13 -43 -18 -61 -14 -23 4 -32 0 -46 -20 -47
-67 -50 -68 -88 -66 -20 2 -43 -2 -51 -9 -8 -6 -27 -9 -42 -6 -15 3 -32 3 -38
-1 -15 -10 -144 -220 -144 -234 0 -6 5 -26 12 -44 10 -28 8 -37 -11 -69 -20
-34 -21 -39 -6 -61 23 -36 19 -54 -35 -144 -54 -90 -58 -101 -35 -120 22 -18
18 -45 -11 -89 -21 -32 -24 -43 -15 -60 6 -11 11 -30 11 -43 0 -13 6 -32 14
-43 7 -11 16 -36 19 -55 6 -44 30 -107 45 -122 7 -7 12 -29 12 -49 0 -29 5
-39 21 -44 18 -6 496 -236 586 -283 31 -16 33 -15 56 6 30 29 45 28 124 -8 73
-33 85 -35 113 -18 16 10 27 8 65 -10 56 -27 60 -27 92 -2 30 23 40 21 126
-21 l58 -29 29 22 c30 22 44 20 117 -14 17 -8 28 -6 51 11 33 23 44 25 70 12
9 -5 40 -18 69 -29 52 -20 52 -20 77 -1 33 26 50 24 130 -16 51 -25 74 -31 87
-24 30 16 68 10 128 -20 l58 -30 29 20 c40 26 53 24 139 -18 75 -37 75 -37
108 -20 36 20 71 14 143 -25 l41 -22 28 22 c35 28 38 28 109 -8 66 -34 84 -36
112 -15 28 21 48 19 131 -20 l76 -35 31 19 c35 21 54 18 134 -23 50 -25 54
-26 80 -11 26 16 31 15 102 -15 41 -18 80 -36 86 -41 7 -6 17 -2 28 10 26 28
49 31 95 9 41 -19 42 -19 68 2 35 27 45 26 135 -17 73 -34 79 -35 96 -20 25
23 45 21 126 -10 67 -25 71 -25 99 -10 39 23 45 22 130 -19 64 -30 79 -34 108
-26 25 7 44 5 72 -6 36 -14 41 -13 75 6 l37 20 88 -40 88 -41 19 21 c39 42 64
37 167 -28 20 -13 24 -13 35 1 27 32 46 41 65 30 10 -6 49 -25 86 -41 l69 -30
29 21 c34 24 49 21 127 -23 50 -28 57 -30 91 -18 31 10 45 9 89 -5 28 -9 56
-23 63 -31 16 -19 33 -18 54 6 26 29 61 25 141 -17 l70 -37 30 22 c29 22 30
22 79 6 27 -10 60 -23 74 -31 33 -17 46 -16 61 2 20 24 57 18 161 -30 106 -48
130 -53 149 -30 19 22 36 19 144 -30 55 -25 105 -45 113 -45 8 0 25 7 39 16
22 15 30 15 67 4 23 -8 74 -31 113 -52 65 -35 72 -37 92 -22 20 14 29 12 114
-22 51 -20 103 -43 116 -50 20 -13 26 -13 51 6 16 11 36 20 45 20 9 0 60 -22
114 -49 165 -83 167 -83 198 -58 30 23 25 25 184 -42 71 -31 120 -35 120 -11
0 6 16 10 35 10 22 0 78 -22 162 -65 l127 -65 21 20 c12 11 31 20 43 20 12 0
80 -27 150 -61 109 -52 132 -59 162 -53 52 11 64 7 192 -57 65 -32 122 -59
128 -59 6 0 23 9 39 21 l28 21 69 -32 c38 -18 115 -54 172 -81 57 -27 110 -49
119 -49 8 0 26 9 39 19 24 19 25 19 102 -18 131 -63 136 -65 170 -47 41 21 65
20 110 -4 20 -11 79 -40 131 -65 93 -45 95 -45 115 -27 43 39 35 40 230 -53
95 -45 101 -47 140 -35 39 12 43 11 184 -60 l145 -72 28 31 c15 17 32 31 37
31 14 0 116 -45 210 -93 l83 -42 21 28 c11 15 24 27 29 27 6 0 75 -32 154 -70
l144 -71 38 22 38 22 144 -72 143 -72 24 26 c12 14 28 25 33 25 6 0 64 -25
130 -56 l120 -56 27 21 c34 26 53 22 167 -37 81 -42 90 -45 120 -34 29 10 41
8 106 -18 41 -17 91 -40 112 -52 l39 -22 23 22 c35 33 41 31 195 -40 l67 -30
35 20 35 20 55 -28 c30 -15 97 -47 147 -70 l93 -41 29 20 c16 12 35 21 43 21
7 0 90 -39 184 -87 l170 -86 32 23 c29 22 34 23 74 10 24 -7 105 -42 181 -77
126 -59 141 -64 167 -53 37 15 46 12 238 -83 l162 -81 29 28 30 28 198 -97
c109 -54 218 -106 242 -117 44 -18 44 -18 66 2 12 11 31 20 43 20 17 0 97 -38
211 -100 9 -5 61 -30 115 -55 103 -48 108 -49 156 -14 14 10 89 -18 170 -65
43 -24 201 -96 213 -96 6 0 21 10 34 21 22 21 24 21 65 5 24 -9 124 -56 223
-105 l179 -88 31 19 32 18 64 -34 c35 -18 82 -39 104 -46 22 -7 71 -28 109
-46 81 -40 87 -40 111 -14 10 11 23 20 30 20 6 0 88 -38 182 -84 l172 -85 26
21 c24 19 30 20 68 7 23 -7 118 -50 210 -96 93 -46 175 -83 182 -83 8 0 29 9
47 20 l33 19 90 -44 c50 -24 158 -76 240 -117 197 -96 183 -91 203 -68 31 38
45 33 390 -138 125 -61 135 -65 166 -54 18 7 38 12 44 12 7 0 77 -31 156 -70
80 -38 147 -70 150 -70 3 0 28 -13 54 -30 55 -33 83 -38 102 -15 18 22 50 18
131 -16 41 -17 94 -38 118 -46 25 -9 74 -33 110 -54 85 -48 113 -55 143 -35
12 9 32 16 44 16 23 0 218 -93 228 -108 13 -21 67 -25 101 -6 32 17 34 17 98
-9 36 -14 102 -47 147 -72 l82 -45 28 20 c34 24 61 25 101 5 28 -15 32 -14 60
6 l30 21 57 -20 c63 -23 151 -20 187 4 11 8 36 14 56 14 36 0 39 3 80 77 38
67 49 78 79 86 46 11 134 27 190 33 42 5 47 9 73 56 27 48 29 49 67 47 22 -2
44 1 49 6 17 18 171 300 171 313 0 7 -9 20 -20 29 -27 24 -26 35 18 114 l37
68 -26 27 -27 26 33 62 c42 79 176 322 201 363 l19 32 -28 21 c-15 12 -27 30
-27 40 0 26 -17 36 -220 131 -164 76 -177 81 -222 75 -40 -6 -57 -2 -96 17
-87 45 -162 77 -181 77 -10 0 -24 -7 -31 -15 -7 -8 -21 -15 -30 -15 -10 0 -94
36 -186 81 l-167 81 -28 -21 c-15 -12 -33 -21 -38 -21 -5 0 -61 24 -123 54
-62 30 -124 57 -138 61 -14 4 -45 17 -69 28 l-43 22 -18 -23 c-10 -12 -26 -22
-36 -22 -9 0 -112 45 -228 101 -285 137 -280 135 -308 115 -12 -9 -32 -16 -44
-16 -11 0 -119 48 -240 107 -212 104 -221 107 -281 105 -57 -2 -71 3 -200 64
-76 36 -164 78 -195 94 -67 35 -89 37 -106 10 -7 -11 -17 -20 -24 -20 -16 0
-84 31 -258 116 -185 91 -183 90 -219 63 l-29 -21 -186 87 -187 88 -22 -22
c-13 -11 -29 -21 -36 -21 -7 0 -52 18 -100 41 -47 22 -121 54 -165 70 l-78 29
-26 -20 c-13 -11 -29 -20 -35 -20 -5 0 -101 45 -213 99 -111 55 -208 101 -216
102 -7 1 -26 -1 -42 -6 -38 -10 -68 1 -245 88 -118 58 -146 68 -160 59 -54
-39 -46 -42 -301 82 -133 64 -247 116 -254 116 -8 0 -19 -7 -26 -15 -21 -26
-57 -17 -188 46 -245 119 -282 133 -282 109 0 -6 -11 -15 -24 -21 -19 -9 -31
-8 -58 6 -91 46 -310 145 -322 145 -8 0 -27 -7 -43 -16 -28 -16 -31 -15 -184
59 -198 95 -195 94 -225 66 -22 -20 -27 -21 -63 -11 -21 7 -103 44 -181 82
-139 69 -173 80 -185 60 -11 -18 -40 -11 -121 29 -194 94 -214 102 -214 82 0
-5 -13 -14 -30 -21 -28 -12 -38 -8 -161 54 -73 36 -138 66 -146 66 -7 0 -25
-7 -38 -16 -31 -20 -53 -15 -164 37 -46 21 -88 39 -94 39 -6 0 -20 -9 -32 -20
l-21 -20 -94 40 c-84 37 -94 39 -110 25 -27 -24 -64 -18 -165 30 -91 44 -97
45 -135 34 -39 -12 -43 -10 -180 56 l-140 69 -23 -22 c-13 -12 -26 -22 -30
-22 -4 0 -74 30 -156 66 l-149 66 -29 -22 -30 -21 -141 67 -141 67 -31 -27
c-17 -14 -37 -26 -43 -26 -7 0 -75 31 -152 69 l-140 69 -22 -24 c-12 -13 -26
-24 -32 -24 -8 0 -92 38 -244 110 -33 15 -55 20 -75 15 -49 -12 -66 -8 -195
54 -134 64 -157 70 -177 46 -19 -23 -39 -19 -150 30 l-103 46 -21 -21 c-36
-33 -28 -35 -262 76 -84 40 -88 40 -121 14 -24 -19 -25 -19 -73 0 -27 11 -105
47 -172 81 -99 49 -126 59 -140 50 -10 -6 -26 -16 -36 -22 -15 -10 -43 0 -161
55 -139 66 -143 67 -168 51 -36 -24 -69 -16 -212 53 -113 53 -128 58 -158 49
-27 -8 -47 -5 -118 18 -48 16 -88 33 -91 37 -8 13 -49 9 -80 -6 -31 -17 -24
-19 -202 64 -105 50 -113 52 -130 36 -34 -30 -65 -22 -226 54 l-49 24 -18 -22
c-25 -31 -46 -28 -153 23 -53 25 -101 45 -108 45 -6 0 -22 -9 -34 -21 l-23
-21 -68 30 c-176 78 -180 80 -198 70 -26 -15 -75 -4 -171 41 l-87 41 -22 -20
c-29 -27 -40 -26 -136 19 -119 55 -124 55 -157 31 l-28 -21 -90 40 c-80 35
-91 38 -109 25 -37 -27 -46 -27 -116 1 -68 26 -71 27 -110 11 -41 -17 -42 -16
-108 14 -54 26 -74 30 -108 25 -33 -5 -56 0 -113 24 -40 17 -76 31 -81 31 -6
0 -22 -9 -38 -21 l-28 -21 -73 36 -72 36 -28 -20 c-37 -26 -47 -26 -135 11
-74 31 -76 32 -108 15 -30 -16 -35 -17 -77 -2 -43 15 -46 15 -73 -5 -26 -19
-29 -19 -75 -4 -26 9 -65 27 -88 39 -37 21 -44 22 -68 9 -26 -13 -33 -12 -102
18 -73 32 -75 32 -109 16 -32 -15 -39 -16 -83 -1 -26 9 -64 25 -85 36 -37 19
-38 19 -66 -2 -37 -26 -38 -26 -120 11 l-69 31 -29 -21 -28 -21 -59 21 -58 21
-30 -22 c-33 -24 -40 -23 -142 27 l-48 25 -27 -26 c-15 -14 -33 -26 -39 -26
-7 0 -41 14 -75 32 -51 27 -74 33 -132 33 -49 1 -86 8 -122 24 l-51 23 -29
-21 -29 -22 -76 35 c-70 32 -78 33 -103 20 -40 -20 -64 -18 -140 17 -62 28
-68 29 -91 15 -34 -23 -62 -20 -132 16 -61 31 -63 32 -91 15 -38 -23 -44 -22
-130 13 -65 27 -79 29 -103 19 -24 -10 -40 -7 -103 15 l-76 27 -26 -21 c-14
-11 -30 -20 -35 -20 -5 0 -45 16 -89 36 l-79 37 -34 -18 c-32 -17 -37 -18 -74
-3 -38 15 -42 15 -73 -4 -36 -22 -30 -23 -181 40 -46 20 -47 20 -65 0 -14 -15
-24 -18 -48 -13 -16 4 -57 7 -89 7 -47 -1 -74 6 -131 32 -73 34 -73 34 -101
15z"/>
<path d="M58564 17625 c-195 -52 -287 -152 -285 -309 0 -96 53 -290 111 -406
26 -52 80 -245 80 -284 0 -44 -38 -91 -87 -107 -56 -18 -156 -5 -283 37 -165
54 -240 114 -240 193 0 38 -9 39 -48 6 -114 -96 -56 -257 124 -348 78 -39 227
-89 314 -104 161 -28 306 4 392 84 30 29 53 129 43 191 -17 106 -79 333 -155
567 -50 153 -58 211 -35 254 27 52 80 71 209 71 93 0 120 -4 196 -29 48 -17
109 -40 134 -52 31 -14 55 -19 73 -14 149 36 62 153 -171 229 -142 47 -254 53
-372 21z"/>
<path d="M59748 16956 c-31 -7 -62 -17 -70 -23 -7 -6 -24 -14 -38 -18 -14 -4
-61 -25 -105 -45 -44 -21 -128 -59 -187 -84 -169 -72 -198 -88 -389 -213 -78
-51 -168 -139 -176 -171 -10 -43 6 -124 33 -165 24 -36 29 -39 61 -34 43 7 87
35 179 115 38 32 114 89 169 126 112 75 475 261 485 249 18 -21 31 -150 21
-213 -25 -167 -43 -270 -56 -327 -8 -33 -18 -99 -21 -146 -6 -77 -5 -89 15
-121 58 -94 111 -99 232 -23 46 30 143 88 214 129 120 69 166 92 264 135 l34
14 -7 -39 c-8 -53 -47 -136 -146 -317 -76 -137 -84 -156 -88 -216 -4 -65 -3
-67 33 -108 21 -22 45 -41 55 -41 26 0 68 37 90 80 11 21 51 83 90 137 68 96
117 165 262 368 289 404 279 382 214 480 -46 69 -88 98 -135 91 -67 -10 -378
-169 -562 -287 -119 -77 -189 -110 -240 -112 l-44 -2 -1 155 c-3 279 -15 530
-28 568 -11 30 -21 40 -57 53 -37 14 -53 14 -101 5z"/>
<path d="M61768 16090 c-123 -21 -299 -100 -389 -172 -23 -18 -69 -56 -102
-83 -34 -28 -82 -63 -107 -78 -25 -15 -70 -44 -100 -66 -30 -21 -111 -76 -179
-121 -172 -113 -248 -171 -260 -198 -26 -56 -1 -128 55 -158 51 -27 100 -14
242 66 l127 72 75 -10 c41 -6 138 -24 215 -41 77 -17 173 -38 214 -46 41 -8
84 -21 96 -29 46 -30 42 -97 -20 -326 -12 -47 -28 -107 -34 -135 -13 -54 -18
-46 54 -100 68 -52 148 47 181 222 26 141 59 241 124 372 81 165 122 265 164
405 40 132 48 234 21 285 -23 45 -112 118 -159 130 -60 15 -164 20 -218 11z
m172 -235 c26 -31 -12 -172 -78 -287 -17 -32 -32 -60 -32 -62 0 -6 -33 -55
-69 -103 -30 -40 -61 -42 -147 -13 -32 12 -99 32 -148 46 -89 25 -179 65 -191
84 -4 6 17 33 47 60 76 72 369 246 460 275 60 18 142 19 158 0z"/>
<path d="M62970 15605 c-7 -8 -18 -15 -25 -15 -18 0 -667 -640 -719 -709 -107
-140 -129 -185 -127 -259 1 -48 6 -65 32 -112 5 -8 20 -35 33 -60 64 -119 215
-214 415 -260 84 -20 100 -21 150 -10 72 16 91 26 91 50 0 51 -18 65 -133 103
-62 20 -142 44 -179 53 -94 24 -180 73 -190 109 -22 85 155 298 498 595 329
286 364 325 364 404 0 26 -8 41 -35 65 -64 56 -148 78 -175 46z"/>
<path d="M63893 15121 c-72 -58 -672 -666 -730 -741 -83 -106 -103 -152 -103
-233 0 -62 4 -76 35 -126 65 -107 228 -243 325 -271 167 -48 228 -52 335 -22
56 16 42 80 -23 108 -44 18 -156 54 -267 84 -102 28 -173 64 -187 94 -18 40
14 111 89 201 107 127 415 428 571 558 184 153 228 212 206 275 -12 35 -110
99 -161 106 -37 5 -46 2 -90 -33z"/>
</g>
</svg>
